
<svg xmlns="http://www.w3.org/2000/svg" version="1.1" xmlns:xlink="http://www.w3.org/1999/xlink" preserveAspectRatio="none" x="0px" y="0px" width="255px" height="75px" viewBox="0 0 255 75">
<defs>
<g id="Layer37_0_FILL">
<path fill="#000000" stroke="none" d="
M 394.5 157
Q 394.5 147 384.5 147
L 149.5 147
Q 139.5 147 139.5 157
L 139.5 212
Q 139.5 222 149.5 222
L 384.5 222
Q 394.5 222 394.5 212
L 394.5 157 Z"/>
</g>

<g id="Apple_logo_0_Layer0_0_MEMBER_0_MEMBER_0_FILL">
<path fill="#FFFFFF" stroke="none" d="
M 31.8 23.75
Q 30.15 22.15 30.1 19.75 30.05 17.75 31.4 16.15 32.1 15.35 32.85 14.9 31.25 12.55 28.2 12.35 27.05 12.25 25.4 12.9 23.6 13.55 23.3 13.55 22.9 13.55 21.45 13 20 12.4 19.1 12.4 17.5 12.45 16.1 13.3 14.7 14.15 13.85 15.6 12.3 18.35 13 22.35 13.6 25.8 15.45 28.5 17.65 31.75 19.45 31.7 20.2 31.7 21.45 31.15 22.6 30.65 23.65 30.65 24.65 30.65 25.85 31.15 27 31.7 27.85 31.65 29 31.65 30.05 30.7 30.7 30.05 31.75 28.55 33 26.75 33.5 24.9 32.65 24.6 31.8 23.75 Z"/>
</g>

<g id="Apple_logo_0_Layer0_0_MEMBER_0_MEMBER_1_FILL">
<path fill="#FFFFFF" stroke="none" d="
M 23.1 12.05
Q 25.2 12.25 26.9 10.3 28.45 8.45 28.2 6.2 27.25 6.25 26.2 6.8 25.1 7.35 24.45 8.15 22.85 10.1 23.1 12.05 Z"/>
</g>

<g id="Layer7_0_MEMBER_0_FILL">
<path fill="#FFFFFF" stroke="none" d="
M 49.3 18.15
L 46.65 18.15 42.4 31.5 44.6 31.5 45.8 27.55 50.1 27.55 51.35 31.5 53.6 31.5 49.3 18.15
M 47.9 19.95
L 47.95 19.95 49.75 25.95 46.15 25.95 47.9 19.95 Z"/>
</g>

<g id="Layer7_0_MEMBER_1_FILL">
<path fill="#FFFFFF" stroke="none" d="
M 60.65 21.7
Q 58.5 21.7 57.45 23.4
L 57.4 23.4 57.25 21.9 55.4 21.9 55.5 35.4 57.6 35.4 57.6 30.35 57.65 30.35
Q 58.5 31.7 60.35 31.7 62.05 31.7 63.3 30.45 64.65 29.05 64.65 26.55 64.65 24.35 63.5 23.05 62.4 21.7 60.65 21.7
M 58.55 23.9
Q 59.1 23.4 60 23.4 61.1 23.4 61.85 24.35 62.45 25.25 62.45 26.65 62.45 28.15 61.8 29.1 61.15 30 59.9 30 58.9 30 58.25 29.3 57.6 28.6 57.6 27.55
L 57.6 25.95 57.7 25.3
Q 57.95 24.4 58.55 23.9 Z"/>
</g>

<g id="Layer7_0_MEMBER_2_FILL">
<path fill="#FFFFFF" stroke="none" d="
M 74.55 23.05
Q 73.45 21.7 71.7 21.7 69.55 21.7 68.45 23.4
L 68.3 21.9 66.45 21.9 66.5 35.4 68.65 35.4 68.65 30.35 68.7 30.35
Q 69.55 31.7 71.4 31.7 73.1 31.7 74.35 30.45 75.65 29.1 75.65 26.55 75.65 24.3 74.55 23.05
M 69.6 23.9
Q 70.15 23.4 71 23.4 72.2 23.4 72.85 24.35 73.5 25.2 73.5 26.65 73.5 28.15 72.85 29.1 72.2 30 70.95 30 69.85 30 69.3 29.3 68.65 28.6 68.65 27.55
L 68.65 25.95 68.75 25.3
Q 69 24.4 69.6 23.9 Z"/>
</g>

<g id="Layer7_0_MEMBER_3_FILL">
<path fill="#FFFFFF" stroke="none" d="
M 84.7 23.8
Q 83.35 23.3 82.75 22.8 82.15 22.3 82.15 21.5 82.15 20.75 82.65 20.3 83.25 19.75 84.4 19.75 85.85 19.75 86.95 20.35
L 87.5 18.6
Q 86.2 17.95 84.5 17.95 82.5 17.95 81.2 19 80 20.05 80 21.7 80 24.2 83.5 25.55 84.7 25.95 85.35 26.55 85.9 27.2 85.9 27.9 85.9 28.8 85.2 29.4 84.55 29.9 83.35 29.9 81.6 29.9 80.25 29.05
L 79.75 30.85
Q 81.15 31.7 83.2 31.7 85.5 31.7 86.85 30.5 88 29.45 88 27.75 88 26.3 87.2 25.45 86.5 24.6 84.7 23.8 Z"/>
</g>

<g id="Layer7_0_MEMBER_4_FILL">
<path fill="#FFFFFF" stroke="none" d="
M 89.2 23.5
L 90.6 23.5 90.6 28.3
Q 90.6 30.15 91.35 30.9 92.05 31.7 93.3 31.7 94.3 31.7 94.95 31.45
L 94.9 29.8
Q 94.65 29.9 93.95 29.9 92.7 29.9 92.7 28.15
L 92.7 23.5 95.05 23.5 95.05 21.9 92.7 21.9 92.7 19.5 90.6 20.15 90.6 21.9 89.2 21.9 89.2 23.5 Z"/>
</g>

<g id="Layer7_0_MEMBER_5_FILL">
<path fill="#FFFFFF" stroke="none" d="
M 101.05 21.7
Q 98.8 21.7 97.55 23.1 96.25 24.55 96.25 26.75 96.25 28.8 97.5 30.3 98.75 31.7 100.9 31.7 103.05 31.7 104.4 30.25 105.65 28.85 105.65 26.6 105.65 24.45 104.45 23.1 103.2 21.7 101.05 21.7
M 99 24.4
Q 99.7 23.25 100.95 23.25 102.2 23.25 102.9 24.4 103.45 25.4 103.45 26.65 103.45 28 102.85 28.95 102.2 30.15 100.95 30.15 99.7 30.15 99 29 98.45 28 98.45 26.7 98.45 25.4 99 24.4 Z"/>
</g>

<g id="Layer7_0_MEMBER_6_FILL">
<path fill="#FFFFFF" stroke="none" d="
M 109.45 23.7
L 109.4 23.7 109.3 21.9 107.45 21.9 107.5 31.5 109.65 31.5 109.65 26.45
Q 109.65 25.35 110.2 24.55 110.8 23.7 111.9 23.7
L 112.6 23.75 112.6 21.75 112.05 21.7
Q 111.2 21.7 110.5 22.2 109.85 22.8 109.45 23.7 Z"/>
</g>

<g id="Layer7_0_MEMBER_7_FILL">
<path fill="#FFFFFF" stroke="none" d="
M 122.05 27.2
L 122.15 26.25
Q 122.15 24.45 121.3 23.2 120.15 21.65 118.15 21.65 116.05 21.65 114.8 23.2 113.6 24.65 113.6 26.8 113.6 29 114.9 30.35 116.2 31.65 118.4 31.65 120.25 31.65 121.6 31.05
L 121.25 29.6
Q 120.15 30.05 118.7 30.05 117.4 30.05 116.6 29.35 115.75 28.6 115.65 27.2
L 122.05 27.2
M 116.3 24
Q 116.9 23.15 118 23.15 119.1 23.15 119.7 24.05 120.1 24.75 120.1 25.65
L 115.65 25.65
Q 115.7 24.85 116.3 24 Z"/>
</g>

<g id="Layer7_1_MEMBER_0_FILL">
<path fill="#FFFFFF" stroke="none" d="
M 49.05 10
Q 49.05 8.45 48.05 7.55 47.15 6.8 45.45 6.8
L 43.65 6.95 43.65 13.4 45.2 13.45
Q 47 13.45 47.95 12.65 49.05 11.7 49.05 10
M 47.9 10
Q 47.9 11.3 47.25 11.95 46.65 12.65 45.4 12.65
L 44.7 12.6 44.7 7.7
Q 44.95 7.65 45.55 7.65 46.7 7.65 47.3 8.25 47.9 8.85 47.9 10 Z"/>
</g>

<g id="Layer7_1_MEMBER_1_FILL">
<path fill="#FFFFFF" stroke="none" d="
M 54.9 11
Q 54.9 10 54.3 9.3 53.6 8.6 52.6 8.6 51.6 8.6 50.9 9.3 50.25 10.05 50.25 11.1 50.25 12.15 50.9 12.85 51.5 13.5 52.55 13.5 53.7 13.5 54.25 12.8 54.9 12.15 54.9 11
M 51.6 12.2
Q 51.35 11.6 51.35 11.05 51.35 10.45 51.6 9.95 52 9.35 52.6 9.35 53.2 9.35 53.5 9.95 53.8 10.4 53.8 11.05 53.8 11.7 53.5 12.15 53.2 12.75 52.55 12.75 52 12.75 51.6 12.2 Z"/>
</g>

<g id="Layer7_1_MEMBER_2_FILL">
<path fill="#FFFFFF" stroke="none" d="
M 62.75 8.7
L 61.7 8.7 60.8 12.45 59.75 8.7 58.9 8.7 57.85 12.45 57 8.7 55.9 8.7 57.3 13.4 58.25 13.4 58.9 11.35
Q 59.1 10.85 59.3 9.85
L 60.3 13.4 61.25 13.4 62.75 8.7 Z"/>
</g>

<g id="Layer7_1_MEMBER_3_FILL">
<path fill="#FFFFFF" stroke="none" d="
M 65.15 10.6
Q 65.15 10.1 65.4 9.8 65.7 9.45 66.15 9.45 67.1 9.45 67.1 10.7
L 67.1 13.4 68.15 13.4 68.15 10.6
Q 68.15 9.5 67.65 9 67.15 8.6 66.55 8.6 66 8.6 65.6 8.85 65.2 9.1 65.05 9.45
L 65 9.45 64.95 8.7 64.05 8.7 64.1 13.4 65.15 13.4 65.15 10.6 Z"/>
</g>

<g id="Layer7_1_MEMBER_4_FILL">
<path fill="#FFFFFF" stroke="none" d="
M 71.05 13.4
L 71.05 6.55 70 6.55 70 13.4 71.05 13.4 Z"/>
</g>

<g id="Layer7_1_MEMBER_5_FILL">
<path fill="#FFFFFF" stroke="none" d="
M 73.25 9.3
Q 72.6 10.05 72.6 11.1 72.6 12.15 73.25 12.85 73.85 13.5 74.9 13.5 76.05 13.5 76.6 12.8 77.25 12.15 77.25 11 77.25 10 76.65 9.3 75.95 8.6 74.95 8.6 73.85 8.6 73.25 9.3
M 74.9 9.35
Q 75.55 9.35 75.85 9.95 76.15 10.4 76.15 11.05 76.15 11.7 75.85 12.15 75.55 12.75 74.9 12.75 74.35 12.75 73.95 12.2 73.7 11.6 73.7 11.05 73.7 10.45 73.95 9.95 74.35 9.35 74.9 9.35 Z"/>
</g>

<g id="Layer7_1_MEMBER_6_FILL">
<path fill="#FFFFFF" stroke="none" d="
M 82.3 13.4
L 82.25 10.55
Q 82.25 8.6 80.4 8.6 79.45 8.6 78.75 9
L 79 9.7
Q 79.5 9.35 80.2 9.35 81.2 9.35 81.2 10.25
L 81.2 10.35
Q 79.9 10.35 79.15 10.8 78.45 11.2 78.45 12.15 78.45 12.75 78.8 13.1 79.2 13.5 79.9 13.5 80.8 13.5 81.25 12.85
L 81.3 12.85 81.35 13.4 82.3 13.4
M 81.2 11.05
L 81.2 11.95
Q 81.1 12.35 80.85 12.55 80.6 12.75 80.2 12.75 79.85 12.75 79.7 12.55 79.5 12.4 79.5 12 79.5 11.05 81.2 11.05 Z"/>
</g>

<g id="Layer7_1_MEMBER_7_FILL">
<path fill="#FFFFFF" stroke="none" d="
M 84.35 9.25
Q 83.75 10 83.75 11.1 83.75 12.15 84.3 12.85 84.9 13.5 85.75 13.5 86.85 13.5 87.25 12.65
L 87.3 12.65 87.35 13.4 88.25 13.4 88.2 6.55 87.15 6.55 87.15 9.25
Q 86.8 8.6 85.85 8.6 84.95 8.6 84.35 9.25
M 85.15 9.9
Q 85.45 9.4 86.05 9.4 86.4 9.4 86.75 9.65 87.1 10 87.15 10.3
L 87.15 11.4
Q 87.15 11.95 86.85 12.3 86.55 12.65 86.05 12.65 85.45 12.65 85.15 12.2 84.8 11.8 84.8 11.05 84.8 10.3 85.15 9.9 Z"/>
</g>

<g id="Layer7_1_MEMBER_8_FILL">
<path fill="#FFFFFF" stroke="none" d="
M 93.25 9.3
Q 92.6 9.95 92.6 11.1 92.6 12.1 93.2 12.85 93.85 13.5 94.9 13.5 95.95 13.5 96.6 12.8 97.2 12.15 97.2 11 97.2 10 96.6 9.3 96 8.6 94.95 8.6 93.85 8.6 93.25 9.3
M 95.85 9.95
Q 96.15 10.4 96.15 11.05 96.15 11.7 95.85 12.15 95.5 12.75 94.9 12.75 94.35 12.75 93.95 12.2 93.65 11.7 93.65 11.05 93.65 10.4 93.95 9.95 94.25 9.35 94.9 9.35 95.55 9.35 95.85 9.95 Z"/>
</g>

<g id="Layer7_1_MEMBER_9_FILL">
<path fill="#FFFFFF" stroke="none" d="
M 102.85 13.4
L 102.85 10.6
Q 102.85 9.5 102.3 9 101.8 8.6 101.2 8.6 100.75 8.6 100.25 8.85 99.9 9.15 99.75 9.45
L 99.7 9.45 99.65 8.7 98.75 8.7 98.75 13.4 99.8 13.4 99.8 10.6
Q 99.8 10.2 100.1 9.8 100.4 9.45 100.85 9.45 101.8 9.45 101.8 10.7
L 101.8 13.4 102.85 13.4 Z"/>
</g>

<g id="Layer7_1_MEMBER_10_FILL">
<path fill="#FFFFFF" stroke="none" d="
M 108.75 8.7
L 108.75 7.5 107.75 7.85 107.75 8.7 107.05 8.7 107.05 9.5 107.75 9.5 107.75 11.85
Q 107.75 12.75 108.1 13.15 108.4 13.5 109.05 13.5 109.45 13.5 109.85 13.4
L 109.85 12.6 109.35 12.65
Q 108.75 12.65 108.75 11.75
L 108.75 9.5 109.9 9.5 109.9 8.7 108.75 8.7 Z"/>
</g>

<g id="Layer7_1_MEMBER_11_FILL">
<path fill="#FFFFFF" stroke="none" d="
M 115.45 10.6
Q 115.45 9.55 114.95 9 114.45 8.6 113.85 8.6 112.9 8.6 112.45 9.35
L 112.4 9.35 112.4 6.55 111.35 6.55 111.35 13.4 112.4 13.4 112.4 10.55 112.45 10.2
Q 112.75 9.45 113.45 9.45 114.4 9.45 114.4 10.75
L 114.4 13.4 115.45 13.4 115.45 10.6 Z"/>
</g>

<g id="Layer7_1_MEMBER_12_FILL">
<path fill="#FFFFFF" stroke="none" d="
M 117.55 9.35
Q 117 10.05 117 11.1 117 12.2 117.6 12.85 118.25 13.5 119.35 13.5 120.25 13.5 120.9 13.2
L 120.75 12.5
Q 120.2 12.7 119.5 12.7 118.8 12.7 118.45 12.35 118 12 118 11.3
L 121.15 11.3 121.2 10.85
Q 121.2 9.95 120.75 9.35 120.25 8.6 119.2 8.6 118.25 8.6 117.55 9.35
M 118 10.55
Q 118.1 10.05 118.3 9.75 118.6 9.3 119.15 9.3 119.7 9.3 120 9.75 120.2 10.25 120.2 10.55
L 118 10.55 Z"/>
</g>
</defs>

<g transform="matrix( 1, 0, 0, 1, -139.5,-147) ">
<use xlink:href="#Layer37_0_FILL"/>
</g>

<g transform="matrix( 1, 0, 0, 1, 24.05,11.65) ">
<g transform="matrix( 1.8748626708984375, 0, 0, 1.875, -23.95,-11.65) ">
<use xlink:href="#Apple_logo_0_Layer0_0_MEMBER_0_MEMBER_0_FILL"/>
</g>

<g transform="matrix( 1.8748626708984375, 0, 0, 1.875, -23.95,-11.65) ">
<use xlink:href="#Apple_logo_0_Layer0_0_MEMBER_0_MEMBER_1_FILL"/>
</g>
</g>

<g transform="matrix( 1.8748626708984375, 0, 0, 1.875, 0.1,0) ">
<use xlink:href="#Layer7_0_MEMBER_0_FILL"/>
</g>

<g transform="matrix( 1.8748626708984375, 0, 0, 1.875, 0.1,0) ">
<use xlink:href="#Layer7_0_MEMBER_1_FILL"/>
</g>

<g transform="matrix( 1.8748626708984375, 0, 0, 1.875, 0.1,0) ">
<use xlink:href="#Layer7_0_MEMBER_2_FILL"/>
</g>

<g transform="matrix( 1.8748626708984375, 0, 0, 1.875, 0.1,0) ">
<use xlink:href="#Layer7_0_MEMBER_3_FILL"/>
</g>

<g transform="matrix( 1.8748626708984375, 0, 0, 1.875, 0.1,0) ">
<use xlink:href="#Layer7_0_MEMBER_4_FILL"/>
</g>

<g transform="matrix( 1.8748626708984375, 0, 0, 1.875, 0.1,0) ">
<use xlink:href="#Layer7_0_MEMBER_5_FILL"/>
</g>

<g transform="matrix( 1.8748626708984375, 0, 0, 1.875, 0.1,0) ">
<use xlink:href="#Layer7_0_MEMBER_6_FILL"/>
</g>

<g transform="matrix( 1.8748626708984375, 0, 0, 1.875, 0.1,0) ">
<use xlink:href="#Layer7_0_MEMBER_7_FILL"/>
</g>

<g transform="matrix( 1.8748626708984375, 0, 0, 1.875, 0.1,0) ">
<use xlink:href="#Layer7_1_MEMBER_0_FILL"/>
</g>

<g transform="matrix( 1.8748626708984375, 0, 0, 1.875, 0.1,0) ">
<use xlink:href="#Layer7_1_MEMBER_1_FILL"/>
</g>

<g transform="matrix( 1.8748626708984375, 0, 0, 1.875, 0.1,0) ">
<use xlink:href="#Layer7_1_MEMBER_2_FILL"/>
</g>

<g transform="matrix( 1.8748626708984375, 0, 0, 1.875, 0.1,0) ">
<use xlink:href="#Layer7_1_MEMBER_3_FILL"/>
</g>

<g transform="matrix( 1.8748626708984375, 0, 0, 1.875, 0.1,0) ">
<use xlink:href="#Layer7_1_MEMBER_4_FILL"/>
</g>

<g transform="matrix( 1.8748626708984375, 0, 0, 1.875, 0.1,0) ">
<use xlink:href="#Layer7_1_MEMBER_5_FILL"/>
</g>

<g transform="matrix( 1.8748626708984375, 0, 0, 1.875, 0.1,0) ">
<use xlink:href="#Layer7_1_MEMBER_6_FILL"/>
</g>

<g transform="matrix( 1.8748626708984375, 0, 0, 1.875, 0.1,0) ">
<use xlink:href="#Layer7_1_MEMBER_7_FILL"/>
</g>

<g transform="matrix( 1.8748626708984375, 0, 0, 1.875, 0.1,0) ">
<use xlink:href="#Layer7_1_MEMBER_8_FILL"/>
</g>

<g transform="matrix( 1.8748626708984375, 0, 0, 1.875, 0.1,0) ">
<use xlink:href="#Layer7_1_MEMBER_9_FILL"/>
</g>

<g transform="matrix( 1.8748626708984375, 0, 0, 1.875, 0.1,0) ">
<use xlink:href="#Layer7_1_MEMBER_10_FILL"/>
</g>

<g transform="matrix( 1.8748626708984375, 0, 0, 1.875, 0.1,0) ">
<use xlink:href="#Layer7_1_MEMBER_11_FILL"/>
</g>

<g transform="matrix( 1.8748626708984375, 0, 0, 1.875, 0.1,0) ">
<use xlink:href="#Layer7_1_MEMBER_12_FILL"/>
</g>
</svg>
